<?xml version="1.0" encoding="utf-8"?>
<!-- Svg Vector Icons : http://www.onlinewebfonts.com/icon -->
<!DOCTYPE svg PUBLIC "-//W3C//DTD SVG 1.1//EN" "http://www.w3.org/Graphics/SVG/1.1/DTD/svg11.dtd">
<svg version="1.1" xmlns="http://www.w3.org/2000/svg" xmlns:xlink="http://www.w3.org/1999/xlink" x="0px" y="0px" viewBox="0 0 1000 1000" enable-background="new 0 0 1000 1000" xml:space="preserve">
<metadata> Svg Vector Icons : http://www.onlinewebfonts.com/icon </metadata>
<g><g><g><path d="M878.6,594.5h-60.4l-50.1,67.2l-51.4-67.2h-16.9v45l68.3,77.8l66.3-77.8h44.2C990,639.5,990,527.7,990,527.7V260.4c0,0,0-111.4-111.4-111.4H433.2c-111.4,0-111.4,111.3-111.4,111.3l44.5,0.1c0,0,0-66.8,66.8-66.8h445.5c66.8,0,66.8,66.8,66.8,66.8v267.3C945.5,527.7,945.5,594.5,878.6,594.5z"/><path d="M10,394v267.4c0,0,0,111.8,111.4,111.8h22.9l78.5,77.8l76.9-77.8h267.1c111.4,0,111.4-111.8,111.4-111.8V394.1c0,0,0-111.4-111.4-111.4H121.4C10,282.7,10,394,10,394z M633.6,394.1v267.3c0,0,0,67.3-66.8,67.3H293.1L222.2,797l-66.8-68.4h-34c0,0-66.8,0-66.8-67.3V394.1c0-66.8,66.8-66.8,66.8-66.8h445.5C633.6,327.3,633.6,394.1,633.6,394.1z"/></g></g><g></g><g></g><g></g><g></g><g></g><g></g><g></g><g></g><g></g><g></g><g></g><g></g><g></g><g></g><g></g></g>
</svg>